<?xml version="1.0" encoding="iso-8859-1"?>
<!-- Generator: Adobe Illustrator 19.0.0, SVG Export Plug-In . SVG Version: 6.00 Build 0)  -->
<svg version="1.1" id="Capa_1" xmlns="http://www.w3.org/2000/svg" xmlns:xlink="http://www.w3.org/1999/xlink" x="0px" y="0px"
	 viewBox="0 0 496 496" style="enable-background:new 0 0 496 496;" xml:space="preserve">
<linearGradient id="SVGID_1_" gradientUnits="userSpaceOnUse" x1="-52.4449" y1="576.9689" x2="15.3151" y2="644.7299" gradientTransform="matrix(8 0 0 -8 399 5085)">
	<stop  offset="0" style="stop-color:#003F8A"/>
	<stop  offset="0.518" style="stop-color:#00D7DF"/>
	<stop  offset="1" style="stop-color:#006DF0"/>
</linearGradient>
<path style="fill:url(#SVGID_1_);" d="M472,104H24c-13.255,0-24,10.745-24,24v240c0,13.255,10.745,24,24,24h344c4.418,0,8-3.582,8-8
	s-3.582-8-8-8H24c-4.418,0-8-3.582-8-8V158.128l227.88,136.728c2.535,1.523,5.705,1.523,8.24,0L480,158.128V280c0,4.418,3.582,8,8,8
	s8-3.582,8-8V128C496,114.745,485.255,104,472,104L472,104z M248,278.672l-232-139.2V128c0-4.418,3.582-8,8-8h448
	c4.418,0,8,3.582,8,8v11.472L248,278.672z"/>
<linearGradient id="SVGID_2_" gradientUnits="userSpaceOnUse" x1="-32.9878" y1="557.5148" x2="34.7752" y2="625.2728" gradientTransform="matrix(8 0 0 -8 399 5085)">
	<stop  offset="0" style="stop-color:#003F8A"/>
	<stop  offset="0.518" style="stop-color:#00D7DF"/>
	<stop  offset="1" style="stop-color:#006DF0"/>
</linearGradient>
<path style="fill:url(#SVGID_2_);" d="M488,328H360c-4.418,0-8,3.582-8,8s3.582,8,8,8h128c4.418,0,8-3.582,8-8S492.418,328,488,328z
	"/>
<linearGradient id="SVGID_3_" gradientUnits="userSpaceOnUse" x1="-56.4882" y1="581.0122" x2="11.2748" y2="648.7732" gradientTransform="matrix(8 0 0 -8 399 5085)">
	<stop  offset="0" style="stop-color:#003F8A"/>
	<stop  offset="0.518" style="stop-color:#00D7DF"/>
	<stop  offset="1" style="stop-color:#006DF0"/>
</linearGradient>
<path style="fill:url(#SVGID_3_);" d="M40,312c-4.418,0-8,3.582-8,8v32c0,4.418,3.582,8,8,8h16c4.418,0,8-3.582,8-8s-3.582-8-8-8h-8
	v-24C48,315.582,44.418,312,40,312z"/>
<linearGradient id="SVGID_4_" gradientUnits="userSpaceOnUse" x1="-52.487" y1="577.014" x2="15.276" y2="644.772" gradientTransform="matrix(8 0 0 -8 399 5085)">
	<stop  offset="0" style="stop-color:#003F8A"/>
	<stop  offset="0.518" style="stop-color:#00D7DF"/>
	<stop  offset="1" style="stop-color:#006DF0"/>
</linearGradient>
<path style="fill:url(#SVGID_4_);" d="M88,344c-4.418,0-8,3.582-8,8s3.582,8,8,8h16c4.418,0,8-3.582,8-8s-3.582-8-8-8H88z"/>
<g>
</g>
<g>
</g>
<g>
</g>
<g>
</g>
<g>
</g>
<g>
</g>
<g>
</g>
<g>
</g>
<g>
</g>
<g>
</g>
<g>
</g>
<g>
</g>
<g>
</g>
<g>
</g>
<g>
</g>
</svg>
