<svg id="Capa_1" enable-background="new 0 0 512 512" height="512" viewBox="0 0 512 512" width="512" xmlns="http://www.w3.org/2000/svg"><g><path d="m272.645 324.479h-117.843l-73.652-66.287v-188.524h265.147v188.524z" fill="#eaf6ff"/><path d="m283.756 314.481-11.107 9.997h-117.851l-73.651-66.283v-188.523h19.995v178.525l73.651 66.284z" fill="#d8ecfe"/><path d="m7.498 191.905 73.652-44.191v110.478z" fill="#f9d264"/><path d="m7.498 442.324v-250.419l147.304 132.574z" fill="#f9d264"/><path d="m27.49 209.897v216.436l-19.995 15.996v-250.428z" fill="#efc356"/><path d="m419.949 442.324v-250.419l-147.304 132.574z" fill="#f9d264"/><path d="m7.498 442.324h412.451l-147.304-117.845h-117.843z" fill="#fff292"/><path d="m419.952 442.329h-412.457l24.994-19.995h362.469z" fill="#f9e77d"/><circle cx="420.669" cy="186.243" fill="#f25a74" r="85.4"/><path d="m355.269 186.243c0-43.782 32.947-79.869 75.4-84.82-3.28-.383-6.617-.58-10-.58-47.165 0-85.4 38.235-85.4 85.4s38.235 85.4 85.4 85.4c3.383 0 6.72-.197 10-.58-42.453-4.952-75.4-41.038-75.4-84.82z" fill="#e83d5a"/><g><path d="m505.926 195.217c-4.065-.785-7.999 1.871-8.787 5.936-7.067 36.499-39.226 62.99-76.467 62.99-42.954 0-77.9-34.946-77.9-77.9s34.946-77.9 77.9-77.9c37.242 0 69.401 26.49 76.467 62.989.787 4.064 4.72 6.719 8.787 5.936 4.065-.787 6.723-4.721 5.936-8.787-8.429-43.536-46.779-75.134-91.19-75.134-26.236 0-49.964 10.936-66.873 28.485v-52.16c0-4.142-3.357-7.498-7.498-7.498h-196.551c-4.142 0-7.498 3.357-7.498 7.498s3.357 7.498 7.498 7.498h189.053v65.21c-14.703 29.242-14.703 58.484 0 87.726v24.744l-68.414 61.575-.617.555h-112.094l-69.03-62.128-.003-177.682h28.433c4.142 0 7.498-3.357 7.498-7.498s-3.357-7.498-7.498-7.498h-35.931c-4.142 0-7.498 3.357-7.498 7.498v73.798l-70.008 42.005c-2.22 1.328-3.641 3.847-3.641 6.43v250.419c0 4.055 3.432 7.503 7.495 7.503h257.725c4.142 0 7.498-3.357 7.498-7.498s-3.357-7.498-7.498-7.498h-236.35l128.564-102.854h112.584l128.56 102.854h-100.686c-4.142 0-7.498 3.357-7.498 7.498s3.357 7.498 7.498 7.498h122.06c4.061 0 7.498-3.439 7.498-7.498v-163.457c41.482-3.027 76.415-33.565 84.411-74.868.788-4.065-1.87-8-5.935-8.787zm-221.695 128.925.386-.347 75.053-67.55c14.393 12.559 32.68 20.757 52.785 22.528v147.955zm-269.235 102.581v-217.982l128.219 115.401zm58.653-185.371-53.595-48.236 53.595-32.158z"/><path d="m403.588 212.904c-4.142 0-7.498 3.357-7.498 7.498s3.357 7.498 7.498 7.498h34.16c4.142 0 7.498-3.357 7.498-7.498s-3.357-7.498-7.498-7.498h-9.582v-60.822c0-4.142-3.357-7.498-7.498-7.498h-17.081c-4.142 0-7.498 3.357-7.498 7.498s3.357 7.498 7.498 7.498h9.583v53.324z"/><path d="m133.415 139.395h156.445c4.142 0 7.498-3.357 7.498-7.498s-3.357-7.498-7.498-7.498h-156.445c-4.142 0-7.498 3.357-7.498 7.498s3.356 7.498 7.498 7.498z"/><path d="m133.415 169.4h156.445c4.142 0 7.498-3.357 7.498-7.498s-3.357-7.498-7.498-7.498h-156.445c-4.142 0-7.498 3.357-7.498 7.498s3.356 7.498 7.498 7.498z"/><path d="m133.415 201.505h156.445c4.142 0 7.498-3.357 7.498-7.498s-3.357-7.498-7.498-7.498h-156.445c-4.142 0-7.498 3.357-7.498 7.498s3.356 7.498 7.498 7.498z"/><path d="m133.415 232.559h156.445c4.142 0 7.498-3.357 7.498-7.498s-3.357-7.498-7.498-7.498h-156.445c-4.142 0-7.498 3.357-7.498 7.498s3.356 7.498 7.498 7.498z"/><path d="m133.415 263.494h156.445c4.142 0 7.498-3.357 7.498-7.498s-3.357-7.498-7.498-7.498h-156.445c-4.142 0-7.498 3.357-7.498 7.498s3.356 7.498 7.498 7.498z"/></g></g></svg>